# AST/ASF file generated using VICON BodyLanguage
# -----------------------------------------------
:version 1.10
:name VICON
:units
  mass 1.0
  length 0.45
  angle deg
:documentation
   .ast/.asf automatically generated from VICON data using
   VICON BodyBuilder and BodyLanguage model FoxedUp or BRILLIANT.MOD
:root
   order TX TY TZ RX RY RZ
   axis XYZ
   position 0 0 0  
   orientation 0 -0 0 
:bonedata
  begin
     id 1 
     name lhipjoint
     direction 0.432694 -0.693742 0.575759 
     length 2.19277 
     axis 0 -0 0  XYZ
  end
  begin
     id 2 
     name lfemur
     direction 0.34202 -0.939693 0  
     length 6.69022  
     axis 0 -0 20  XYZ
    dof rx ry rz
    limits (-160.0 20.0)
           (-70.0 70.0)
           (-60.0 70.0)
  end
  begin
     id 3 
     name ltibia
     direction 0.34202 -0.939693 0   
     length 6.50337   
     axis 0 -0 20   XYZ
    dof rx
    limits (-10.0 170.0)
  end
  begin
     id 4 
     name lfoot
     direction 0.158999 -0.435969 0.885805   
     length 2.70564   
     axis -90 -1.13533e-015 20   XYZ
    dof rx rz
    limits (-45.0 90.0)
           (-70.0 20.0)
  end
  begin
     id 5 
     name ltoes
     direction -0.00592919 0.00964381 0.999936   
     length 1.29929   
     axis -90 -1.13533e-015 20   XYZ
    dof rx
    limits (-90.0 20.0)
  end
  begin
     id 6 
     name rhipjoint
     direction -0.414359 -0.700339 0.581234   
     length 2.17212  
     axis 0 -0 0  XYZ 
  end
  begin
     id 7 
     name rfemur
     direction -0.34202 -0.939693 0   
     length 7.17659   
     axis 0 -0 -20   XYZ
    dof rx ry rz
    limits (-160.0 20.0)
           (-70.0 70.0)
           (-70.0 60.0)
  end
  begin
     id 8 
     name rtibia
     direction -0.34202 -0.939693 0   
     length 6.36669   
     axis 0 -0 -20   XYZ
    dof rx
    limits (-10.0 170.0)
 end
 begin
     id 9 
     name rfoot
     direction -0.137064 -0.37658 0.916188   
     length 2.22351  
     axis -90 1.13533e-015 -20   XYZ
    dof rx rz
    limits (-45.0 90.0)
           (-20.0 70.0)
  end
  begin
     id 10 
     name rtoes
     direction -0.000784077 -0.00289101 0.999996   
     length 1.09522   
     axis -90 1.13533e-015 -20   XYZ
    dof rx
    limits (-90.0 20.0)
  end
  begin
     id 11 
     name lowerback
     direction -0.0176242 0.984912 -0.172157   
     length 1.65301   
     axis 0 -0 0   XYZ
    dof rx ry rz
    limits (-20.0 45.0)
           (-30.0 30.0)
           (-30.0 30.0)
  end
  begin
     id 12 
     name upperback
     direction -0.00218128 0.998776 -0.0494072   
     length 1.67776   
     axis 0 -0 0   XYZ
    dof rx ry rz
    limits (-20.0 45.0)
           (-30.0 30.0)
           (-30.0 30.0)
  end
  begin
     id 13 
     name thorax
     direction 0.00544186 0.999658 0.0255711   
     length 1.72293   
     axis 0 -0 0   XYZ
    dof rx ry rz
    limits (-20.0 45.0)
           (-30.0 30.0)
           (-30.0 30.0)
  end
  begin
     id 14 
     name lowerneck
     direction -0.105325 0.983841 0.144785   
     length 2.14226   
     axis 0 -0 0   XYZ
    dof rx ry rz
    limits (-20.0 45.0)
           (-30.0 30.0)
           (-30.0 30.0)
  end
  begin
     id 15 
     name upperneck
     direction 0.0547957 0.988053 -0.144041   
     length 2.17508   
     axis 0 -0 0   XYZ
    dof rx ry rz
    limits (-20.0 45.0)
           (-30.0 30.0)
           (-30.0 30.0)
  end
  begin
     id 16
     name head
     direction 0.0247488 0.997534 -0.0656813  
     length 2.20048  
     axis 0 -0 0   XYZ
    dof rx ry rz
    limits (-20.0 45.0)
           (-30.0 30.0)
           (-30.0 30.0)
  end
  begin
     id 17 
     name lclavicle
     direction 0.820559 0.567247 -0.0701026  
     length 4.09615  
     axis 0 -0 0   XYZ
    dof ry rz
    limits (-20.0 10.0)
           (0.0 20.0)
  end
  begin
     id 18 
     name lhumerus
     direction 0.999977 -0.0067566 -9.96392e-005   
     length 4.59333   
     axis -180 -30 -90   XYZ
    dof rx ry rz
    limits (-60.0 90.0)
           (-90.0 90.0)
           (-90.0 90.0)
  end
  begin
     id 19
     name lradius
     direction 1 -4.48982e-011 -2.53425e-027   
     length 2.81151   
     axis -180 -30 -90   XYZ
    dof rx
    limits (-10.0 170.0)
  end
  begin
     id 20
     name lwrist
     direction 1 -4.48939e-011 -7.39254e-028   
     length 1.40576   
     axis 2.56395e-016 90 90   XYZ
    dof ry
    limits (-180.0 0.0)
 end
  begin
     id 21 
     name lhand
     direction 1 -4.48939e-011 -1.47851e-027   
     length 0.895651   
     axis 9.43423e-016 90 90   XYZ
    dof rx rz
    limits (-90.0 90.0)
           (-45.0 45.0)
  end
  begin
     id 22 
     name lfingers
     direction 1 -4.48978e-011 -2.95702e-027   
     length 0.722097   
     axis 1.88685e-015 90 90   XYZ
    dof rx
    limits (0.0 90.0)
  end
  begin
     id 23
     name lthumb
     direction 0.707107 -6.34931e-011 0.707107   
     length 1.03679   
     axis -90 45 -9.86935e-015   XYZ
    dof rx rz
    limits (-45.0 45.0)
           (-45.0 45.0)
  end
  begin
     id 24 
     name rclavicle
     direction -0.831414 0.553102 -0.0531864   
     length 4.24872  
     axis 0 -0 0   XYZ 
    dof ry rz
    limits (-10.0 20.0)
           (-20.0 0.0)
  end
  begin
     id 25 
     name rhumerus
     direction -0.999916 -0.000939607 0.0129331  
     length 4.74834   
     axis -180 30 90   XYZ
    dof rx ry rz
    limits (-90.0 60.0)
           (-90.0 90.0)
           (-90.0 90.0)
  end
  begin
     id 26 
     name rradius
     direction -1 -4.48956e-011 -1.31752e-027   
     length 2.79907   
     axis -180 30 90   XYZ
    dof rx
    limits (-10.0 170.0)
  end
  begin
     id 27 
     name rwrist
     direction -1 -4.4897e-011 -7.39254e-028   
     length 1.39954   
     axis 2.56395e-016 -90 -90   XYZ
    dof ry
    limits (-180.0 0.0)
  end
  begin
     id 28
     name rhand
     direction -0.999997 -0.00250697 0.000800838   
     length 0.953304   
     axis 9.43423e-016 -90 -90   XYZ
    dof rx rz
    limits (-90.0 90.0)
           (-45.0 45.0)
  end
  begin
     id 29
     name rfingers
     direction -1 -4.48954e-011 -2.95702e-027   
     length 0.763342   
     axis 1.88685e-015 -90 -90   XYZ
    dof rx
    limits (0.0 90.0)
  end
  begin
     id 30
     name rthumb
     direction -0.709701 -0.00217037 0.7045   
     length 1.10115   
     axis -90 -45 9.86935e-015   XYZ
    dof rx rz
    limits (-45.0 45.0)
           (-45.0 45.0)
  end
:hierarchy
  begin
    root lhipjoint rhipjoint lowerback
    lhipjoint lfemur
    lfemur ltibia
    ltibia lfoot
    lfoot ltoes
    rhipjoint rfemur
    rfemur rtibia
    rtibia rfoot
    rfoot rtoes
    lowerback upperback
    upperback thorax
    thorax lowerneck lclavicle rclavicle
    lowerneck upperneck
    upperneck head
    lclavicle lhumerus
    lhumerus lradius
    lradius lwrist
    lwrist lhand lthumb
    lhand lfingers
    rclavicle rhumerus
    rhumerus rradius
    rradius rwrist
    rwrist rhand rthumb
    rhand rfingers
  end

#!OML:ASF G:\ViconDB\ViconDB\414\test\team2\shane.ASF
:FULLY-SPECIFIED
:DEGREES
94
root 3.17997 16.9913 -24.6069 -4.17843 -1.30568 -7.67907
lowerback 10.7917 0.0235397 0.893821
upperback 7.04767 0.101958 -0.870347
thorax 1.29448 0.0952315 -1.41273
lowerneck -10.0622 -6.03127 -12.1237
upperneck 33.322 -2.94359 -8.50346
head 13.1577 -3.86658 -1.67912
rclavicle -8.34896e-015 6.36111e-015
rhumerus -17.6772 8.30641 -62.7386
rradius 125.406
rwrist -4.58056
rhand -27.346 -20.3254
rfingers 7.12502
rthumb -0.754217 -50.3038
lclavicle -8.34896e-015 6.36111e-015
lhumerus -35.6276 -18.9825 88.3128
lradius 34.7631
lwrist -17.6311
lhand -37.9156 6.36825
lfingers 7.12502
lthumb -10.9578 36.0623
rfemur -24.3048 -19.1995 25.1182
rtibia 46.7595
rfoot -18.4651 4.79671
rtoes -16.6392
lfemur 9.62723 0.838491 -8.38665
ltibia 17.9607
lfoot -25.777 -10.1766
ltoes -8.99922
95
root 3.17289 17.0168 -24.4401 -4.13965 -0.527375 -7.57978
lowerback 10.8012 -0.180227 0.859589
upperback 6.86641 -0.168358 -0.635713
thorax 1.09102 -0.0473357 -1.12459
lowerneck -10.0939 -6.27768 -12.4571
upperneck 32.3343 -3.52078 -7.85828
head 12.7668 -4.02807 -1.4072
rclavicle -1.19271e-015 -3.18055e-015
rhumerus -17.7943 10.1743 -61.4435
rradius 123.867
rwrist -4.41123
rhand -27.2752 -19.8934
rfingers 7.12502
rthumb -0.685837 -49.872
lclavicle -1.19271e-015 -3.18055e-015
lhumerus -35.5763 -18.6185 88.6518
lradius 34.7907
lwrist -17.574
lhand -37.4731 6.50341
lfingers 7.12502
lthumb -10.531 36.2196
rfemur -24.5787 -19.4317 24.9783
rtibia 43.7446
rfoot -18.6952 5.13591
rtoes -16.305
lfemur 10.9173 1.33029 -8.2578
ltibia 16.0205
lfoot -25.1058 -11.2888
ltoes -8.9967
96
root 3.16393 17.0354 -24.2731 -4.10574 0.11821 -7.47505
lowerback 10.7582 -0.281428 0.786218
upperback 6.76337 -0.3066 -0.436721
thorax 1.00378 -0.122877 -0.863916
lowerneck -10.1266 -6.48712 -12.6093
upperneck 31.1254 -4.14586 -7.03889
head 12.2918 -4.15927 -1.1013
rclavicle 9.14409e-015 4.77083e-015
rhumerus -17.7791 11.9333 -59.9834
rradius 121.847
rwrist -3.31054
rhand -27.1238 -19.3277
rfingers 7.12502
rthumb -0.539668 -49.3068
lclavicle -1.19271e-015 -3.18055e-015
lhumerus -35.5763 -18.6185 88.6518
lradius 34.7907
lwrist -17.574
lhand -37.4731 6.50341
lfingers 7.12502
lthumb -10.531 36.2196
rfemur -24.8169 -19.3181 24.7917
rtibia 40.9614
rfoot -18.7757 5.08452
rtoes -16.5252
lfemur 12.2831 1.92045 -8.14384
ltibia 13.9989
lfoot -24.4063 -12.1708
ltoes -9.20674
97
root 3.15659 17.0418 -24.107 -4.00682 0.930787 -7.4121
lowerback 10.7186 -0.480262 0.997249
upperback 6.56731 -0.549417 -0.40632
thorax 0.813933 -0.23977 -0.926874
lowerneck -10.2612 -6.70192 -12.3816
upperneck 30.179 -4.74646 -6.43513
head 11.9389 -4.28391 -0.957034
rclavicle 1.15295e-014 1.59028e-015
rhumerus -17.8786 13.5621 -58.8513
rradius 119.905
rwrist -3.49941
rhand -26.7876 -18.3315
rfingers 7.12502
rthumb -0.214949 -48.3111
lclavicle 1.15295e-014 1.59028e-015
lhumerus -35.8708 -19.3197 89.2054
lradius 35.3195
lwrist -16.9871
lhand -37.0147 6.27946
lfingers 7.12502
lthumb -10.0888 36.0176
rfemur -25.1908 -19.6288 24.6568
rtibia 38.4509
rfoot -18.8922 5.20315
rtoes -17.1596
lfemur 13.5018 2.21442 -7.96204
ltibia 12.0678
lfoot -23.5151 -13.1751
ltoes -8.89543
98
root 3.1456 17.0349 -23.9425 -4.05078 1.60103 -7.22785
lowerback 10.4467 -0.772719 1.59361
upperback 6.60471 -0.889296 -0.889007
thorax 0.978857 -0.38158 -1.73164
lowerneck -10.3792 -6.72353 -11.3313
upperneck 28.9527 -5.26341 -5.8555
head 11.4308 -4.28259 -0.929478
rclavicle 1.15295e-014 1.59028e-015
rhumerus -17.8786 13.5621 -58.8513
rradius 119.905
rwrist -3.49941
rhand -26.7876 -18.3315
rfingers 7.12502
rthumb -0.214949 -48.3111
lclavicle 5.1684e-015 6.36111e-015
lhumerus -36.0098 -20.4513 88.6547
lradius 35.8528
lwrist -16.3671
lhand -36.7345 6.0033
lfingers 7.12502
lthumb -9.81847 35.7544
rfemur -25.4324 -20.0138 24.3453
rtibia 36.2281
rfoot -18.998 5.4125
rtoes -17.7086
lfemur 14.9207 2.96228 -7.79678
ltibia 10.0356
lfoot -22.611 -14.3367
ltoes -8.9971
99
root 3.13514 17.0248 -23.7797 -4.10124 2.34937 -7.05302
lowerback 10.2314 -0.959867 1.69517
upperback 6.63305 -1.13032 -0.876629
thorax 1.11406 -0.497279 -1.75637
lowerneck -10.3495 -6.87001 -11.2408
upperneck 27.6295 -5.78283 -5.13576
head 10.9346 -4.36999 -0.701859
rclavicle 1.15295e-014 1.59028e-015
rhumerus -17.8786 13.5621 -58.8513
rradius 119.905
rwrist -3.49941
rhand -26.7876 -18.3315
rfingers 7.12502
rthumb -0.214949 -48.3111
lclavicle 1.19271e-014 2.22639e-014
lhumerus -36.0267 -21.37 88.9154
lradius 36.1017
lwrist -16.1663
lhand -36.7182 6.15349
lfingers 7.12502
lthumb -9.80279 35.9053
rfemur -25.6719 -20.1282 23.9555
rtibia 34.4053
rfoot -19.2916 4.94882
rtoes -19.0938
lfemur 16.2616 2.41866 -7.92023
ltibia 8.15883
lfoot -21.7135 -14.3961
ltoes -9.16937
100
root 3.12832 16.9984 -23.6141 -4.21901 3.03043 -6.73147
lowerback 10.1141 -1.13322 1.71346
upperback 6.62278 -1.3588 -0.965596
thorax 1.15498 -0.608516 -1.83961
lowerneck -10.0338 -6.93087 -11.1217
upperneck 26.125 -6.25801 -4.26727
head 10.3339 -4.41831 -0.410965
rclavicle 1.15295e-014 1.59028e-015
rhumerus -17.8786 13.5621 -58.8513
rradius 119.905
rwrist -3.49941
rhand -26.7876 -18.3315
rfingers 7.12502
rthumb -0.214949 -48.3111
lclavicle -1.47101e-014 9.54166e-015
lhumerus -36.2206 -22.6191 89.2278
lradius 36.4537
lwrist -15.6097
lhand -36.9506 6.24712
lfingers 7.12502
lthumb -10.027 35.9883
rfemur -25.8678 -20.5824 23.3953
rtibia 32.8904
rfoot -19.5807 4.7187
rtoes -18.7646
lfemur 17.8894 1.96089 -8.27921
ltibia 6.00168
lfoot -20.8974 -14.3511
ltoes -9.19293
101
root 3.1184 16.9453 -23.4493 -4.39632 3.70291 -6.36337
lowerback 9.99596 -1.34909 1.75252
upperback 6.65839 -1.64217 -1.10361
thorax 1.23933 -0.744874 -1.98168
lowerneck -9.50429 -6.92184 -11.0702
upperneck 24.3648 -6.65718 -3.30422
head 9.6265 -4.42948 -0.0628562
rclavicle 1.15295e-014 1.59028e-015
rhumerus -17.8786 13.5621 -58.8513
rradius 119.905
rwrist -3.49941
rhand -26.7876 -18.3315
rfingers 7.12502
rthumb -0.214949 -48.3111
lclavicle -3.97569e-016 2.54444e-014
lhumerus -36.5026 -23.9506 89.4289
lradius 37.0182
lwrist -15.1115
lhand -36.8726 6.01118
lfingers 7.12502
lthumb -9.95177 35.7559
rfemur -26.0551 -21.0167 22.7881
rtibia 31.6805
rfoot -20.0789 4.18175
rtoes -18.7964
lfemur 20.0936 1.50064 -8.66997
ltibia 2.74812
lfoot -19.5978 -14.4638
ltoes -9.17495
102
root 3.10856 16.9036 -23.2819 -4.59409 4.31804 -6.17299
lowerback 10.4992 -1.25183 0.496063
upperback 6.33416 -1.60531 0.0552882
thorax 0.691589 -0.788627 -0.0664819
lowerneck -8.87637 -7.16359 -12.7165
upperneck 23.0184 -6.94644 -2.79246
head 9.15229 -4.59876 0.383057
rclavicle -5.36719e-015 1.51076e-014
rhumerus -14.8009 0.734204 -45.6018
rradius 114.96
rwrist 155.65
rhand -14.6137 13.1028
rfingers 7.12502
rthumb 11.5373 -16.5597
lclavicle -5.36719e-015 1.51076e-014
lhumerus -36.9406 -24.4511 91.523
lradius 37.0584
lwrist -15.5038
lhand -36.824 6.39489
lfingers 7.12502
lthumb -9.90489 36.1419
rfemur -26.1988 -21.3507 22.3421
rtibia 30.7548
rfoot -20.5856 3.83108
rtoes -18.5612
lfemur 22.0941 1.07262 -8.84943
ltibia -1.27222e-014
lfoot -18.637 -14.592
ltoes -9.19814
103
root 3.09406 16.8575 -23.1136 -4.8184 4.97377 -5.90042
lowerback 10.3212 -1.40909 0.289297
upperback 6.42295 -1.83054 0.209515
thorax 0.891481 -0.909156 0.224241
lowerneck -8.45691 -7.20856 -12.893
upperneck 21.4666 -7.23756 -2.20077
head 8.57526 -4.63064 0.62531
rclavicle -1.17283e-014 -1.19271e-014
rhumerus -14.0477 2.39956 -44.1806
rradius 113.126
rwrist 155.328
rhand -14.7451 13.9692
rfingers 7.12502
rthumb 11.4106 -15.7004
lclavicle -1.17283e-014 -1.19271e-014
lhumerus -36.8134 -25.5096 92.0179
lradius 37.2535
lwrist -15.5413
lhand -37.2216 5.91249
lfingers 7.12502
lthumb -10.2884 35.6408
rfemur -26.2224 -21.4817 21.6968
rtibia 30.0463
rfoot -21.1723 3.42356
rtoes -18.172
lfemur 22.8454 0.584481 -9.05433
ltibia -5.725e-014
lfoot -19.2915 -14.6325
ltoes -9.2524
104
root 3.08094 16.8014 -22.9499 -5.05366 5.71788 -5.69334
lowerback 10.2443 -1.57561 0.299625
upperback 6.50708 -2.04918 0.262569
thorax 1.02334 -1.01865 0.289728
lowerneck -8.06054 -7.27346 -13.0389
upperneck 20.0301 -7.58233 -1.40339
head 8.06342 -4.67685 0.917503
rclavicle 7.35503e-015 -1.59028e-014
rhumerus -13.5637 4.1477 -42.8505
rradius 111.459
rwrist 154.672
rhand -14.3806 15.044
rfingers 7.12502
rthumb 11.7621 -14.6058
lclavicle 7.35503e-015 -1.59028e-014
lhumerus -36.7279 -27.2916 92.4164
lradius 37.5479
lwrist -14.9972
lhand -37.2053 5.98691
lfingers 7.12502
lthumb -10.2727 35.716
rfemur -26.1675 -21.6035 21.1132
rtibia 29.4488
rfoot -21.6303 2.87384
rtoes -18.1125
lfemur 23.5684 0.00928468 -9.22151
ltibia -5.725e-014
lfoot -20.123 -14.5926
ltoes -9.63087
105
root 3.07039 16.7432 -22.7854 -5.2958 6.43736 -5.56593
lowerback 10.2295 -1.72976 0.39903
upperback 6.5397 -2.2437 0.376381
thorax 1.06712 -1.11464 0.368134
lowerneck -7.56751 -7.322 -12.8546
upperneck 18.5427 -7.83752 -1.20555
head 7.48737 -4.71415 0.973817
rclavicle -9.34288e-015 2.22639e-014
rhumerus -13.1882 5.88258 -41.3776
rradius 110.184
rwrist 152.821
rhand -13.6406 17.1089
rfingers 7.12502
rthumb 12.4757 -12.4987
lclavicle -9.34288e-015 2.22639e-014
lhumerus -36.6072 -28.9371 92.9034
lradius 37.5833
lwrist -14.6626
lhand -37.5754 5.74256
lfingers 7.12502
lthumb -10.6297 35.4537
rfemur -26.0796 -21.8484 20.651
rtibia 29.0416
rfoot -21.9143 2.68728
rtoes -18.0583
lfemur 24.2978 -0.562465 -9.27224
ltibia -3.18055e-015
lfoot -20.8863 -14.7096
ltoes -10.1412
